# xmcd
#
# Track frame offsets:
#	150
#	26780
#	46967
#	72860
#	97335
#	129705
#	145912
#	171290
#	192555
#	221335
#	244877
#	265825
#
# Disc length: 3816 seconds
#
# Revision: 1
# Processed by: cddbd v1.5.1PL0 Copyright (c) Steve Scherf et al.
# Submitted via: CDex 1.50Beta5
#
DISCID=bd0ee60c
DTITLE=SiLC - Platina
DYEAR=1999
DGENRE=Rock
TTITLE0=Platina
TTITLE1=Hachimitsu
TTITLE2=Neverland
TTITLE3=「彼」との約束
TTITLE4=Fin
TTITLE5=波間のイルカ
TTITLE6=Horizon
TTITLE7=Chikyugi
TTITLE8=Footlights
TTITLE9=Spin-Drops
TTITLE10=Calling the memory
TTITLE11=Hachimitsu
EXTD=
EXTT0=
EXTT1=
EXTT2=
EXTT3=
EXTT4=
EXTT5=
EXTT6=
EXTT7=
EXTT8=
EXTT9=
EXTT10=
EXTT11=
PLAYORDER=
